<?xml version="1.0" standalone="no"?>
<!DOCTYPE svg PUBLIC "-//W3C//DTD SVG 20010904//EN"
 "http://www.w3.org/TR/2001/REC-SVG-20010904/DTD/svg10.dtd">
<svg version="1.0" xmlns="http://www.w3.org/2000/svg"
 width="305.000000pt" height="305.000000pt" viewBox="0 0 305.000000 305.000000"
 preserveAspectRatio="xMidYMid meet">
<metadata>
Created by potrace 1.14, written by Peter Selinger 2001-2017
</metadata>
<g transform="translate(0.000000,305.000000) scale(0.100000,-0.100000)"
fill="#000000" stroke="none">
<path d="M723 2852 l-23 -3 0 -285 0 -284 -260 0 -260 0 0 -225 0 -225 23 -1
c12 -1 146 -1 297 -1 251 0 279 2 320 20 47 20 140 64 375 177 77 37 181 86
230 110 50 24 170 81 267 128 98 47 186 88 196 91 12 4 97 -32 238 -100 120
-58 289 -140 374 -181 293 -142 442 -213 448 -213 11 0 -999 666 -1034 682
-16 8 -34 0 -95 -40 -106 -70 -249 -162 -252 -162 -2 0 -2 45 -2 100 l1 100
-26 1 c-14 0 -91 0 -172 0 l-148 -1 -1 48 c0 26 0 93 0 150 0 85 -2 104 -15
109 -17 6 -442 10 -481 5z m147 -158 l0 -55 -52 3 -53 3 -2 40 c-3 58 0 61 56
62 l51 1 0 -54z m283 34 c-2 -5 -3 -28 -3 -53 l0 -45 -49 0 c-54 0 -60 8 -53
75 4 30 5 31 55 30 29 0 51 -3 50 -7z m-132 -115 c1 -5 2 -29 3 -55 l2 -48
-53 0 c-57 0 -53 -4 -56 63 -1 12 2 28 7 35 8 13 95 17 97 5z m-151 -59 l0
-55 -52 3 -53 3 -2 40 c-3 60 1 65 57 65 l50 0 0 -56z m646 -126 l-1 -52 -50
0 -50 -1 -2 40 c-3 60 1 65 55 65 l49 0 -1 -52z m-666 -41 l0 -53 -47 0 c-47
1 -48 2 -53 36 -10 62 -3 70 51 70 l49 0 0 -53z m286 -14 l1 -53 -53 0 -54 0
0 55 0 55 53 -3 52 -2 1 -52z m-128 -119 l-2 -54 -50 3 -51 2 -2 50 -1 50 53
2 54 2 -1 -55z m-158 -7 l0 -53 -50 0 -50 0 0 53 0 53 50 0 50 0 0 -53z m-495
-102 l0 -50 -52 -1 -53 0 0 52 0 52 53 -2 52 -1 0 -50z m276 36 c4 -1 6 -23 6
-51 l0 -50 -52 0 -51 0 -1 48 c-1 26 0 49 2 52 3 5 71 5 96 1z m-121 -168 l0
-53 -54 0 -53 0 0 55 1 54 53 -1 53 -2 0 -53z m-159 35 c1 -7 2 -31 3 -54 l1
-41 -52 0 -53 1 0 46 c0 26 2 49 5 52 12 11 95 8 96 -4z"/>
<path d="M1781 2190 c-8 -4 -11 -23 -9 -51 3 -40 6 -44 33 -49 17 -3 40 -4 53
-2 19 4 22 10 22 53 0 32 -4 49 -12 50 -7 0 -27 2 -44 4 -17 2 -36 0 -43 -5z"/>
<path d="M1924 2143 l-1 -53 54 0 53 0 0 50 c0 28 -3 51 -7 51 -5 1 -28 2 -53
3 l-45 2 -1 -53z"/>
<path d="M1775 2050 c-1 -3 -2 -26 -2 -52 -1 -44 0 -46 31 -50 68 -7 76 -1 76
53 0 27 -3 49 -7 50 -31 4 -95 3 -98 -1z"/>
<path d="M1929 2056 c-1 -1 -2 -23 -4 -49 -3 -55 10 -66 71 -59 l35 4 -3 51
-3 51 -47 1 c-27 1 -48 2 -49 1z"/>
<path d="M330 1461 l0 -271 44 0 44 0 0 95 c0 52 3 98 6 103 3 5 29 10 58 11
55 1 109 15 145 38 53 35 73 152 36 215 -34 58 -72 72 -210 76 l-123 4 0 -271z
m203 187 c31 -7 42 -16 53 -44 32 -77 -19 -134 -121 -134 -36 0 -45 4 -46 18
-1 20 -1 153 0 165 1 10 65 7 114 -5z"/>
<path d="M798 1723 c0 -5 -2 -126 -3 -270 l-1 -263 43 0 c34 0 43 4 44 18 0 9
0 60 0 113 l0 96 91 -1 c96 -1 119 8 113 41 -2 10 -4 21 -4 26 -1 4 -46 7
-101 7 l-100 0 2 84 1 83 86 1 c135 0 127 -2 128 37 l1 35 -149 0 c-82 0 -150
-3 -151 -7z"/>
<path d="M1335 1712 c-106 -37 -165 -127 -165 -251 0 -124 42 -211 123 -253
51 -26 174 -33 257 -15 l55 12 3 138 3 137 -99 0 -99 0 2 -37 1 -38 46 0 c26
0 50 -3 54 -8 10 -10 12 -114 3 -129 -12 -18 -137 -15 -176 5 -17 9 -42 33
-55 54 -19 32 -23 51 -23 124 0 76 3 90 27 126 44 67 127 92 223 67 28 -7 53
-13 57 -14 9 0 29 62 22 69 -30 30 -188 38 -259 13z"/>
<path d="M1879 1716 c-126 -45 -185 -174 -156 -341 26 -149 150 -221 320 -185
l57 11 0 38 0 37 -57 -11 c-32 -7 -67 -11 -78 -10 -11 1 -30 3 -42 4 -36 2
-91 58 -104 104 -23 82 -11 182 27 233 42 55 113 71 192 45 l50 -17 16 33 c9
19 16 36 16 38 0 2 -23 11 -52 20 -62 18 -140 19 -189 1z"/>
<path d="M2220 1665 c-1 -36 -1 -121 -1 -190 0 -69 0 -161 1 -206 l0 -81 123
4 c135 4 187 20 240 74 51 51 70 105 69 199 0 67 -6 94 -30 142 -45 87 -132
123 -299 123 l-103 0 0 -65z m250 -25 c63 -32 92 -85 91 -168 -1 -146 -63
-209 -206 -208 l-49 1 -1 175 c0 238 -7 219 74 216 37 -2 78 -9 91 -16z"/>
<path d="M777 860 c-99 -217 -113 -260 -88 -260 9 0 189 -81 223 -100 14 -8
21 -4 34 21 l16 31 23 -22 c19 -18 22 -27 15 -52 -15 -51 23 -98 79 -98 12 0
21 -10 25 -25 7 -27 38 -48 76 -50 18 -1 26 -7 28 -23 7 -46 76 -67 120 -36
20 14 26 13 84 -21 68 -40 101 -41 119 -1 8 17 8 29 -1 46 -17 31 -7 34 31 11
42 -26 71 -27 92 -3 23 25 21 51 -5 79 -27 29 -10 30 36 2 28 -16 39 -18 55
-9 33 17 42 43 26 73 -15 29 -10 32 31 17 38 -15 76 11 73 48 -2 30 9 62 21
62 4 0 13 -13 20 -29 l12 -29 86 39 c48 22 108 50 133 62 l47 22 -108 238
c-59 131 -110 240 -114 244 -3 3 -65 -20 -136 -52 -97 -43 -129 -62 -125 -73
4 -12 -1 -13 -32 -6 -21 4 -92 8 -158 8 -105 1 -124 -2 -156 -20 -27 -16 -47
-21 -80 -17 -25 2 -66 -2 -94 -11 -27 -8 -51 -13 -53 -11 -3 2 1 18 8 35 8 18
9 34 4 39 -12 11 -238 111 -250 111 -5 0 -58 -108 -117 -240z"/>
</g>
</svg>
